<?xml version="1.0" encoding="UTF-8" standalone="no"?>
<svg
   xmlns:dc="http://purl.org/dc/elements/1.1/"
   xmlns:cc="http://creativecommons.org/ns#"
   xmlns:rdf="http://www.w3.org/1999/02/22-rdf-syntax-ns#"
   xmlns:svg="http://www.w3.org/2000/svg"
   xmlns="http://www.w3.org/2000/svg"
   xmlns:sodipodi="http://sodipodi.sourceforge.net/DTD/sodipodi-0.dtd"
   xmlns:inkscape="http://www.inkscape.org/namespaces/inkscape"
   inkscape:version="1.0 (4035a4fb49, 2020-05-01)"
   sodipodi:docname="Delight_Hotels_black.svg"
   id="svg22"
   version="1.1"
   fill="none"
   viewBox="0 0 194 44"
   height="44"
   width="194">
  <metadata
     id="metadata26">
    <rdf:RDF>
      <cc:Work
         rdf:about="">
        <dc:format>image/svg+xml</dc:format>
        <dc:type
           rdf:resource="http://purl.org/dc/dcmitype/StillImage" />
        <dc:title></dc:title>
      </cc:Work>
    </rdf:RDF>
  </metadata>
  <sodipodi:namedview
     inkscape:current-layer="svg22"
     inkscape:window-maximized="1"
     inkscape:window-y="-11"
     inkscape:window-x="-11"
     inkscape:cy="22"
     inkscape:cx="97"
     inkscape:zoom="7.2525773"
     showgrid="false"
     id="namedview24"
     inkscape:window-height="986"
     inkscape:window-width="1920"
     inkscape:pageshadow="2"
     inkscape:pageopacity="0"
     guidetolerance="10"
     gridtolerance="10"
     objecttolerance="10"
     borderopacity="1"
     bordercolor="#666666"
     pagecolor="#ffffff" />
  <g
     style="fill:#280b0b"
     filter="url(#filter0_d)"
     id="Delight Hotels">
    <path
       style="fill:#280b0b"
       id="path2"
       fill="white"
       d="M4.916 10.876L4.844 10.3C4.844 8.62 5.576 7.12 7.04 5.8C9.656 3.472 13.88 2.032 19.712 1.48C20.6 1.408 21.632 1.372 22.808 1.372C24.008 1.372 25.52 1.552 27.344 1.912C29.168 2.248 30.668 2.884 31.844 3.82C33.716 5.356 34.652 7.372 34.652 9.868C34.652 12.34 33.908 14.632 32.42 16.744C30.956 18.832 29.084 20.452 26.804 21.604C24.524 22.756 22.088 23.332 19.496 23.332C16.904 23.332 14.804 22.72 13.196 21.496C13.172 21.52 13.052 21.724 12.836 22.108C12.644 22.492 12.44 22.864 12.224 23.224C11.12 24.976 10.136 25.216 9.272 23.944C8.768 23.2 8.516 22.312 8.516 21.28C8.516 20.248 8.624 19 8.84 17.536C8.864 17.392 8.768 17.056 8.552 16.528C8.48 16.288 8.564 16.048 8.804 15.808C8.996 15.664 9.26 15.544 9.596 15.448C9.956 15.352 10.196 15.352 10.316 15.448C10.46 15.544 10.436 15.808 10.244 16.24C10.052 16.648 9.956 17.032 9.956 17.392C9.956 17.752 10.328 18.292 11.072 19.012C11.816 19.708 12.272 20.08 12.44 20.128C13.016 18.712 14.24 16.06 16.112 12.172C16.328 11.74 16.436 11.416 16.436 11.2C16.436 10.984 16.412 10.816 16.364 10.696C16.484 10 17.24 8.896 18.632 7.384C20.048 5.872 21.188 5.116 22.052 5.116C22.388 5.116 22.808 5.236 23.312 5.476C23.816 5.692 24.104 6.004 24.176 6.412C24.176 6.556 24.164 6.64 24.14 6.664C24.116 6.664 24.056 6.64 23.96 6.592C23.864 6.544 23.792 6.52 23.744 6.52C22.976 6.52 22.064 7.084 21.008 8.212C19.976 9.316 18.944 10.768 17.912 12.568C16.088 15.688 14.624 18.448 13.52 20.848C15.008 21.928 16.628 22.468 18.38 22.468C20.66 22.468 22.844 21.88 24.932 20.704C27.02 19.528 28.7 18.172 29.972 16.636C32.036 14.116 33.068 11.632 33.068 9.184C33.068 7.384 32.348 5.776 30.908 4.36C29.492 2.944 27.236 2.188 24.14 2.092C23.996 2.092 23.852 2.092 23.708 2.092C21.26 2.092 18.68 2.5 15.968 3.316C13.256 4.108 10.94 5.248 9.02 6.736C7.1 8.224 6.14 9.772 6.14 11.38C6.14 11.788 6.26 12.148 6.5 12.46C6.764 12.772 7.028 12.988 7.292 13.108C7.58 13.228 7.928 13.36 8.336 13.504C8.768 13.648 9.044 13.756 9.164 13.828C9.308 13.876 9.392 13.936 9.416 14.008C9.464 14.2 9.296 14.296 8.912 14.296C8.024 14.224 7.124 13.9 6.212 13.324C5.324 12.724 4.88 12.028 4.88 11.236C4.88 11.116 4.892 10.996 4.916 10.876ZM9.776 18.76C9.776 22 10.004 23.62 10.46 23.62C10.796 23.62 11.276 22.78 11.9 21.1C11.948 21.028 11.972 20.98 11.972 20.956C11.804 20.812 11.444 20.464 10.892 19.912C10.364 19.336 9.992 18.952 9.776 18.76ZM43.0451 11.524C44.3411 11.524 44.9891 12.148 44.9891 13.396C44.9891 14.044 44.8091 14.572 44.4491 14.98C43.8491 15.868 42.8771 16.648 41.5331 17.32C40.1891 17.968 39.0491 18.328 38.1131 18.4C37.7771 18.424 37.5971 18.328 37.5731 18.112C37.5491 18.016 37.5731 17.956 37.6451 17.932C37.7411 17.908 37.8131 17.896 37.8611 17.896C38.4131 17.848 39.1211 17.584 39.9851 17.104C41.5931 16.24 42.7691 15.352 43.5131 14.44C43.8251 14.008 43.9811 13.6 43.9811 13.216C43.9811 12.808 43.7891 12.604 43.4051 12.604C43.0931 12.604 42.6731 12.736 42.1451 13C41.0171 13.528 39.8291 14.452 38.5811 15.772C37.3331 17.068 36.5171 18.34 36.1331 19.588C36.0131 19.972 35.9531 20.356 35.9531 20.74C35.9531 21.1 36.1091 21.448 36.4211 21.784C36.7331 22.12 37.2131 22.288 37.8611 22.288C38.5811 22.288 39.4091 22.096 40.3451 21.712C43.0571 20.608 45.1451 18.94 46.6091 16.708C46.7531 16.516 46.8851 16.48 47.0051 16.6C47.1011 16.648 47.1491 16.708 47.1491 16.78C47.1491 16.852 47.1131 16.936 47.0411 17.032C46.3211 18.232 45.4091 19.3 44.3051 20.236C42.1691 22.06 40.0931 22.972 38.0771 22.972C36.3491 22.972 35.1371 22.456 34.4411 21.424C34.1771 21.016 34.0451 20.524 34.0451 19.948C34.0451 19.372 34.2011 18.688 34.5131 17.896C35.1131 16.528 36.3971 15.124 38.3651 13.684C40.3331 12.244 41.8931 11.524 43.0451 11.524ZM58.7172 3.64C59.0052 3.112 59.1492 2.704 59.1492 2.416C59.1492 1.912 58.9452 1.66 58.5372 1.66C58.2012 1.66 57.7812 1.852 57.2772 2.236C55.3572 3.724 53.4972 6.076 51.6972 9.292C50.2572 11.884 49.2012 14.104 48.5292 15.952C50.1852 14.824 52.0332 12.988 54.0732 10.444C56.1372 7.9 57.6852 5.632 58.7172 3.64ZM47.9892 17.392C47.7012 18.208 47.5452 18.76 47.5212 19.048C47.4972 19.312 47.4852 19.684 47.4852 20.164C47.4852 20.62 47.6052 21.04 47.8452 21.424C48.2532 22.072 48.9372 22.12 49.8972 21.568C50.6172 21.184 51.5292 20.488 52.6332 19.48C53.7372 18.448 54.5892 17.512 55.1892 16.672C55.2372 16.6 55.3092 16.564 55.4052 16.564C55.6212 16.564 55.6812 16.72 55.5852 17.032C55.2252 17.68 54.5532 18.508 53.5692 19.516C52.6092 20.524 51.7332 21.328 50.9412 21.928C50.1492 22.504 49.3572 22.792 48.5652 22.792C46.7412 22.792 45.8292 21.904 45.8292 20.128C45.8292 20.056 45.8292 19.984 45.8292 19.912C45.9252 18.232 46.7772 15.7 48.3852 12.316C49.9932 8.908 51.4452 6.34 52.7412 4.612L53.8572 3.208C54.1212 2.896 54.5052 2.512 55.0092 2.056C55.9692 1.144 56.9532 0.688 57.9612 0.688C58.9932 0.688 59.6892 0.999999 60.0492 1.624C60.1692 1.84 60.2292 2.152 60.2292 2.56C60.2292 2.968 60.0492 3.544 59.6892 4.288C57.2172 8.584 53.3172 12.952 47.9892 17.392ZM58.1538 12.028C58.7538 12.028 59.1138 12.22 59.2338 12.604C59.2818 12.82 59.2458 13.036 59.1258 13.252C59.0298 13.444 58.9578 13.6 58.9098 13.72C58.8618 13.84 58.8258 13.936 58.8018 14.008C58.6818 14.248 58.5618 14.476 58.4418 14.692C57.0738 17.428 56.3538 19.168 56.2818 19.912C56.2578 20.128 56.2458 20.404 56.2458 20.74C56.2458 21.076 56.3418 21.352 56.5338 21.568C56.8698 21.952 57.3498 21.976 57.9738 21.64C58.5978 21.304 59.4618 20.632 60.5658 19.624C61.6938 18.616 62.6058 17.632 63.3018 16.672C63.3978 16.552 63.5058 16.528 63.6258 16.6C63.7458 16.648 63.8058 16.708 63.8058 16.78C63.8058 16.828 63.7818 16.888 63.7338 16.96C63.3738 17.608 62.7258 18.436 61.7898 19.444C60.2538 21.1 58.9698 22.12 57.9378 22.504C57.3378 22.72 56.8338 22.828 56.4258 22.828C55.4658 22.828 54.8298 22.372 54.5178 21.46C54.4698 21.292 54.4458 21.088 54.4458 20.848C54.4458 20.008 54.8298 18.736 55.5978 17.032C55.4778 17.296 55.0098 17.896 54.1938 18.832C53.9778 19.072 53.8098 19.072 53.6898 18.832C53.6658 18.784 53.6538 18.724 53.6538 18.652C53.6538 18.556 53.7018 18.448 53.7978 18.328C54.9738 16.864 55.8978 15.628 56.5698 14.62C56.5218 14.5 56.5458 14.344 56.6418 14.152C57.1218 12.808 57.5418 12.1 57.9018 12.028C57.9738 12.028 58.0578 12.028 58.1538 12.028ZM60.9978 7.24L60.7098 8.392C60.7098 8.608 60.5538 8.956 60.2418 9.436C59.9298 9.916 59.6898 10.156 59.5218 10.156C58.4898 10.156 57.9738 9.904 57.9738 9.4C57.9738 9.304 58.4898 8.86 59.5218 8.068L60.1338 7.6C60.5178 7.264 60.7578 7.096 60.8538 7.096C60.9498 7.096 60.9978 7.144 60.9978 7.24ZM61.8829 35.716C61.6909 35.716 61.4509 35.68 61.1629 35.608C59.9389 35.296 59.3269 34.648 59.3269 33.664C59.3269 32.704 59.9629 31.492 61.2349 30.028C62.4829 28.564 65.1349 26.488 69.1909 23.8C70.9189 20.272 72.1189 17.476 72.7909 15.412C71.4469 17.044 70.4869 18.172 69.9109 18.796C67.7509 21.196 66.0109 22.396 64.6909 22.396C64.3069 22.396 63.8869 22.276 63.4309 22.036C62.9989 21.82 62.6269 21.508 62.3149 21.1C62.0029 20.668 61.8469 20.212 61.8469 19.732C61.8469 18.46 62.7349 17.032 64.5109 15.448C65.5669 14.488 66.6709 13.672 67.8229 13C68.9749 12.328 69.8869 11.908 70.5589 11.74C71.2309 11.572 71.8789 11.488 72.5029 11.488C73.1269 11.488 73.6789 11.656 74.1589 11.992C74.6389 12.328 74.8789 12.664 74.8789 13C74.8789 13.192 74.7829 13.252 74.5909 13.18C74.3269 12.724 73.7389 12.496 72.8269 12.496C71.9389 12.496 70.9189 12.796 69.7669 13.396C68.6389 13.972 67.6189 14.668 66.7069 15.484C65.7949 16.276 65.0149 17.188 64.3669 18.22C63.7429 19.228 63.4309 19.972 63.4309 20.452C63.4309 21.292 63.6709 21.712 64.1509 21.712C64.8229 21.712 65.8549 21.16 67.2469 20.056C69.3109 18.448 71.2909 16.492 73.1869 14.188C73.4989 13.732 74.1469 13.744 75.1309 14.224C75.5149 14.416 75.6709 14.584 75.5989 14.728C75.2869 15.424 74.7109 16.636 73.8709 18.364C73.0549 20.068 72.4429 21.352 72.0349 22.216C72.5869 21.928 73.5229 21.208 74.8429 20.056C76.1869 18.88 77.3629 17.704 78.3709 16.528C78.8989 15.904 79.1629 15.808 79.1629 16.24C79.1629 16.84 77.7229 18.424 74.8429 20.992C73.1869 22.48 72.0109 23.416 71.3149 23.8C69.2749 28 67.9069 30.64 67.2109 31.72C65.4109 34.384 63.6349 35.716 61.8829 35.716ZM68.5069 25.168C65.6269 27.328 63.5629 29.032 62.3149 30.28C61.0669 31.552 60.4429 32.74 60.4429 33.844C60.4429 34.18 60.5509 34.42 60.7669 34.564C60.9829 34.708 61.2109 34.78 61.4509 34.78C61.6909 34.78 62.0389 34.6 62.4949 34.24C62.9509 33.88 63.3349 33.52 63.6469 33.16C63.9829 32.824 64.2709 32.5 64.5109 32.188C64.7509 31.9 65.0149 31.516 65.3029 31.036C65.6149 30.58 65.8549 30.22 66.0229 29.956C66.1909 29.692 66.4189 29.272 66.7069 28.696C67.0189 28.144 67.2229 27.76 67.3189 27.544C67.4389 27.352 67.6429 26.944 67.9309 26.32C68.2429 25.696 68.4349 25.312 68.5069 25.168ZM90.1435 0.939999C90.5755 0.771999 90.9475 0.688 91.2595 0.688C92.3155 0.688 93.0115 0.976 93.3475 1.552C93.5395 1.84 93.6355 2.092 93.6355 2.308C93.6355 3.94 92.2675 5.992 89.5315 8.464C87.1075 10.6 84.8755 12.436 82.8355 13.972C82.1635 15.484 81.4675 17.344 80.7475 19.552C81.6115 18.496 82.7035 17.272 84.0235 15.88C86.6875 13.12 88.5475 11.74 89.6035 11.74C90.1315 11.74 90.4075 12.004 90.4315 12.532C90.4795 13.084 90.3595 13.612 90.0715 14.116C89.8075 14.62 89.5555 15.088 89.3155 15.52C88.1875 17.392 87.6235 19.06 87.6235 20.524C87.6235 21.004 87.7195 21.352 87.9115 21.568C88.2475 21.952 88.7275 21.976 89.3515 21.64C89.9755 21.304 90.8395 20.632 91.9435 19.624C93.0715 18.616 93.9835 17.632 94.6795 16.672C94.7995 16.552 94.9075 16.528 95.0035 16.6C95.1235 16.648 95.1835 16.708 95.1835 16.78C95.1835 16.828 95.1595 16.888 95.1115 16.96C94.7515 17.608 94.1035 18.436 93.1675 19.444C92.2315 20.428 91.4755 21.136 90.8995 21.568C89.7955 22.408 88.7395 22.828 87.7315 22.828C86.8195 22.828 86.2075 22.372 85.8955 21.46C85.8235 21.244 85.7875 20.992 85.7875 20.704C85.7875 20.392 85.8115 20.068 85.8595 19.732C85.9795 18.724 86.6155 17.152 87.7675 15.016C88.0075 14.584 88.1275 14.284 88.1275 14.116C88.1275 13.924 88.0315 13.828 87.8395 13.828C87.4555 13.828 86.7115 14.308 85.6075 15.268C84.8635 15.964 83.7595 17.284 82.2955 19.228C80.8555 21.148 80.0395 22.168 79.8475 22.288C78.9835 22.72 78.4435 22.936 78.2275 22.936C78.0355 22.936 77.9275 22.9 77.9035 22.828C77.8795 22.78 77.8915 22.708 77.9395 22.612C77.9875 22.516 78.1795 21.988 78.5155 21.028C79.6435 17.836 80.4115 15.724 80.8195 14.692C80.0275 15.7 79.0435 16.84 77.8675 18.112C77.6755 18.304 77.5795 18.268 77.5795 18.004C77.5795 17.716 77.6875 17.428 77.9035 17.14C78.1195 16.852 78.5635 16.3 79.2355 15.484C79.9315 14.644 80.4235 14.02 80.7115 13.612C80.4955 13.492 80.3755 13.324 80.3515 13.108C80.3515 12.892 80.4235 12.748 80.5675 12.676C80.7355 12.58 80.9995 12.604 81.3595 12.748C81.5995 12.412 81.8155 12.04 82.0075 11.632C84.8635 5.488 87.5755 1.924 90.1435 0.939999ZM92.1595 3.64C92.4715 3.064 92.6275 2.584 92.6275 2.2C92.6275 1.792 92.4475 1.588 92.0875 1.588C91.7515 1.588 91.2955 1.804 90.7195 2.236C88.0795 4.252 85.6915 7.624 83.5555 12.352C85.1155 11.344 86.7475 10 88.4515 8.32C90.1555 6.64 91.3915 5.08 92.1595 3.64ZM99.9734 11.92C101.821 11.752 102.937 11.668 103.321 11.668C103.729 11.668 103.933 11.728 103.933 11.848C103.933 11.992 103.645 12.148 103.069 12.316C102.517 12.46 101.149 12.652 98.9654 12.892C98.8454 13.108 98.7014 13.36 98.5334 13.648C98.1734 14.224 97.9814 14.572 97.9574 14.692C96.5894 17.428 95.8694 19.168 95.7974 19.912C95.7734 20.128 95.7614 20.404 95.7614 20.74C95.7614 21.076 95.8574 21.352 96.0494 21.568C96.3854 21.952 96.8654 21.976 97.4894 21.64C98.1134 21.304 98.9774 20.632 100.081 19.624C101.209 18.616 102.121 17.632 102.817 16.672C102.913 16.552 103.033 16.528 103.177 16.6C103.537 16.768 102.913 17.716 101.305 19.444C99.7694 21.1 98.4854 22.12 97.4534 22.504C96.8534 22.72 96.3494 22.828 95.9414 22.828C94.9814 22.828 94.3454 22.372 94.0334 21.46C93.9854 21.292 93.9614 21.088 93.9614 20.848C93.9614 20.008 94.3454 18.736 95.1134 17.032C94.9934 17.296 94.5254 17.896 93.7094 18.832C93.4934 19.072 93.3254 19.072 93.2054 18.832C93.1814 18.784 93.1694 18.724 93.1694 18.652C93.1694 18.556 93.2174 18.448 93.3134 18.328C94.4894 16.864 95.4134 15.628 96.0854 14.62C96.0854 14.596 96.3494 14.092 96.8774 13.108C96.6374 13.156 96.3854 13.18 96.1214 13.18C95.8814 13.18 95.7014 13.108 95.5814 12.964C95.4614 12.796 95.4494 12.604 95.5454 12.388C95.7134 12.004 96.3494 11.788 97.4534 11.74C97.4774 11.692 97.5254 11.668 97.5974 11.668L99.3974 8.32C99.4934 8.128 99.6014 7.936 99.7214 7.744C99.8414 7.528 99.9254 7.372 99.9734 7.276C100.045 7.156 100.117 7.036 100.189 6.916C100.261 6.796 100.321 6.712 100.369 6.664C100.417 6.616 100.465 6.568 100.513 6.52C100.609 6.376 100.885 6.304 101.341 6.304C101.821 6.304 102.145 6.436 102.313 6.7C102.385 6.796 102.421 6.964 102.421 7.204C102.421 7.42 102.337 7.672 102.169 7.96C102.001 8.224 101.821 8.416 101.629 8.536C101.437 8.656 101.305 8.788 101.233 8.932L99.5054 11.956L99.9734 11.92ZM130.01 14.116L121.082 12.928C117.434 21.208 113.894 25.876 110.462 26.932C109.838 27.148 109.286 27.256 108.806 27.256C107.006 27.256 105.902 26.5 105.494 24.988C105.47 24.892 105.458 24.784 105.458 24.664C105.458 24.568 105.482 24.436 105.53 24.268C105.554 24.124 105.626 24.076 105.746 24.124C105.866 24.172 105.986 24.4 106.106 24.808C106.322 25.504 106.778 25.948 107.474 26.14C108.002 26.236 108.458 26.284 108.842 26.284C109.25 26.284 109.598 26.236 109.886 26.14C113.39 25.036 116.666 20.572 119.714 12.748L117.806 12.64C117.47 12.616 117.158 12.604 116.87 12.604C113.822 12.604 111.95 13.588 111.254 15.556C111.134 15.82 111.074 16.072 111.074 16.312C111.074 16.552 111.146 16.792 111.29 17.032C111.434 17.272 111.386 17.428 111.146 17.5C110.93 17.548 110.75 17.464 110.606 17.248C110.342 16.768 110.21 16.324 110.21 15.916C110.21 14.452 110.474 13.372 111.002 12.676C111.554 11.956 112.19 11.488 112.91 11.272C113.774 11.032 114.734 10.912 115.79 10.912L117.986 11.128C118.754 11.2 119.486 11.308 120.182 11.452C120.758 9.916 121.454 7.852 122.27 5.26C120.998 6.388 119.438 7.048 117.59 7.24C117.35 7.264 117.218 7.18 117.194 6.988C117.194 6.796 117.338 6.676 117.626 6.628C118.658 6.532 119.714 6.004 120.794 5.044C121.898 4.084 122.738 2.956 123.314 1.66C123.362 1.372 123.758 1.228 124.502 1.228C125.246 1.228 125.606 1.372 125.582 1.66C125.438 2.02 124.898 3.412 123.962 5.836C123.05 8.236 122.258 10.204 121.586 11.74C122.21 11.86 123.122 12.064 124.322 12.352C126.77 12.904 128.75 13.264 130.262 13.432C131.654 10.48 132.518 8.596 132.854 7.78C133.214 6.94 133.394 6.412 133.394 6.196C133.394 5.98 133.358 5.812 133.286 5.692C133.358 5.02 133.874 4.144 134.834 3.064C135.818 1.96 136.742 1.408 137.606 1.408C137.99 1.408 138.446 1.552 138.974 1.84C139.526 2.104 139.802 2.452 139.802 2.884C139.802 2.98 139.742 2.992 139.622 2.92C139.502 2.848 139.418 2.812 139.37 2.812C138.77 2.812 138.074 3.244 137.282 4.108C136.49 4.948 135.71 6.04 134.942 7.384C133.766 9.472 132.722 11.536 131.81 13.576C133.874 13.576 135.254 13.144 135.95 12.28C136.07 12.064 136.19 12.04 136.31 12.208C136.43 12.352 136.382 12.58 136.166 12.892C135.974 13.18 135.53 13.468 134.834 13.756C134.138 14.044 133.034 14.188 131.522 14.188C130.394 16.852 129.83 18.94 129.83 20.452C129.83 21.628 130.166 22.216 130.838 22.216C131.534 22.216 132.554 21.688 133.898 20.632C135.266 19.576 136.55 18.244 137.75 16.636C137.822 16.54 137.93 16.528 138.074 16.6C138.218 16.648 138.254 16.756 138.182 16.924C138.134 17.068 137.954 17.368 137.642 17.824C136.634 19.192 135.398 20.464 133.934 21.64C132.854 22.48 131.678 22.9 130.406 22.9C129.758 22.9 129.254 22.708 128.894 22.324C128.558 21.94 128.366 21.58 128.318 21.244C128.294 20.908 128.282 20.596 128.282 20.308C128.282 20.02 128.33 19.576 128.426 18.976C128.666 17.44 129.194 15.82 130.01 14.116ZM144.697 18.04C145.129 17.152 145.345 16.468 145.345 15.988C145.345 15.508 145.285 15.136 145.165 14.872C145.069 14.584 145.117 14.344 145.309 14.152C145.525 13.96 145.789 13.888 146.101 13.936C146.581 14.056 146.821 14.596 146.821 15.556C146.821 16.516 146.257 17.776 145.129 19.336C145.153 19.984 145.489 20.308 146.137 20.308C146.785 20.308 147.769 19.612 149.089 18.22C149.713 17.5 150.097 17.032 150.241 16.816C150.409 16.6 150.553 16.528 150.673 16.6C150.793 16.648 150.853 16.696 150.853 16.744C150.853 16.984 150.421 17.608 149.557 18.616C148.189 20.296 146.977 21.136 145.921 21.136C145.225 21.136 144.733 20.836 144.445 20.236C143.965 20.74 143.497 21.208 143.041 21.64C142.105 22.432 141.061 22.828 139.909 22.828C139.261 22.828 138.721 22.672 138.289 22.36C137.449 21.856 137.029 20.956 137.029 19.66C137.029 18.244 137.509 16.804 138.469 15.34C139.021 14.476 139.669 13.72 140.413 13.072C141.589 12.04 142.705 11.524 143.761 11.524C144.025 11.524 144.277 11.56 144.517 11.632C145.237 11.872 145.597 12.328 145.597 13C145.597 13.552 145.453 13.828 145.165 13.828C145.045 13.78 144.985 13.6 144.985 13.288C144.985 12.856 144.745 12.64 144.265 12.64C143.425 12.64 142.345 13.408 141.025 14.944C139.705 16.48 138.913 18.028 138.649 19.588C138.601 19.852 138.577 20.152 138.577 20.488C138.577 20.8 138.685 21.172 138.901 21.604C139.117 22.012 139.513 22.216 140.089 22.216C140.689 22.216 141.337 21.952 142.033 21.424C142.729 20.896 143.353 20.224 143.905 19.408L143.797 19.192C143.701 18.808 143.749 18.496 143.941 18.256C144.133 18.016 144.385 17.944 144.697 18.04ZM155.626 11.92C157.474 11.752 158.59 11.668 158.974 11.668C159.382 11.668 159.586 11.728 159.586 11.848C159.586 11.992 159.298 12.148 158.722 12.316C158.17 12.46 156.802 12.652 154.618 12.892C154.498 13.108 154.354 13.36 154.186 13.648C153.826 14.224 153.634 14.572 153.61 14.692C152.242 17.428 151.522 19.168 151.45 19.912C151.426 20.128 151.414 20.404 151.414 20.74C151.414 21.076 151.51 21.352 151.702 21.568C152.038 21.952 152.518 21.976 153.142 21.64C153.766 21.304 154.63 20.632 155.734 19.624C156.862 18.616 157.774 17.632 158.47 16.672C158.566 16.552 158.686 16.528 158.83 16.6C159.19 16.768 158.566 17.716 156.958 19.444C155.422 21.1 154.138 22.12 153.106 22.504C152.506 22.72 152.002 22.828 151.594 22.828C150.634 22.828 149.998 22.372 149.686 21.46C149.638 21.292 149.614 21.088 149.614 20.848C149.614 20.008 149.998 18.736 150.766 17.032C150.646 17.296 150.178 17.896 149.362 18.832C149.146 19.072 148.978 19.072 148.858 18.832C148.834 18.784 148.822 18.724 148.822 18.652C148.822 18.556 148.87 18.448 148.966 18.328C150.142 16.864 151.066 15.628 151.738 14.62C151.738 14.596 152.002 14.092 152.53 13.108C152.29 13.156 152.038 13.18 151.774 13.18C151.534 13.18 151.354 13.108 151.234 12.964C151.114 12.796 151.102 12.604 151.198 12.388C151.366 12.004 152.002 11.788 153.106 11.74C153.13 11.692 153.178 11.668 153.25 11.668L155.05 8.32C155.146 8.128 155.254 7.936 155.374 7.744C155.494 7.528 155.578 7.372 155.626 7.276C155.698 7.156 155.77 7.036 155.842 6.916C155.914 6.796 155.974 6.712 156.022 6.664C156.07 6.616 156.118 6.568 156.166 6.52C156.262 6.376 156.538 6.304 156.994 6.304C157.474 6.304 157.798 6.436 157.966 6.7C158.038 6.796 158.074 6.964 158.074 7.204C158.074 7.42 157.99 7.672 157.822 7.96C157.654 8.224 157.474 8.416 157.282 8.536C157.09 8.656 156.958 8.788 156.886 8.932L155.158 11.956L155.626 11.92ZM166.303 11.524C167.599 11.524 168.247 12.148 168.247 13.396C168.247 14.044 168.067 14.572 167.707 14.98C167.107 15.868 166.135 16.648 164.791 17.32C163.447 17.968 162.307 18.328 161.371 18.4C161.035 18.424 160.855 18.328 160.831 18.112C160.807 18.016 160.831 17.956 160.903 17.932C160.999 17.908 161.071 17.896 161.119 17.896C161.671 17.848 162.379 17.584 163.243 17.104C164.851 16.24 166.027 15.352 166.771 14.44C167.083 14.008 167.239 13.6 167.239 13.216C167.239 12.808 167.047 12.604 166.663 12.604C166.351 12.604 165.931 12.736 165.403 13C164.275 13.528 163.087 14.452 161.839 15.772C160.591 17.068 159.775 18.34 159.391 19.588C159.271 19.972 159.211 20.356 159.211 20.74C159.211 21.1 159.367 21.448 159.679 21.784C159.991 22.12 160.471 22.288 161.119 22.288C161.839 22.288 162.667 22.096 163.603 21.712C166.315 20.608 168.403 18.94 169.867 16.708C170.011 16.516 170.143 16.48 170.263 16.6C170.359 16.648 170.407 16.708 170.407 16.78C170.407 16.852 170.371 16.936 170.299 17.032C169.579 18.232 168.667 19.3 167.563 20.236C165.427 22.06 163.351 22.972 161.335 22.972C159.607 22.972 158.395 22.456 157.699 21.424C157.435 21.016 157.303 20.524 157.303 19.948C157.303 19.372 157.459 18.688 157.771 17.896C158.371 16.528 159.655 15.124 161.623 13.684C163.591 12.244 165.151 11.524 166.303 11.524ZM181.975 3.64C182.263 3.112 182.407 2.704 182.407 2.416C182.407 1.912 182.203 1.66 181.795 1.66C181.459 1.66 181.039 1.852 180.535 2.236C178.615 3.724 176.755 6.076 174.955 9.292C173.515 11.884 172.459 14.104 171.787 15.952C173.443 14.824 175.291 12.988 177.331 10.444C179.395 7.9 180.943 5.632 181.975 3.64ZM171.247 17.392C170.959 18.208 170.803 18.76 170.779 19.048C170.755 19.312 170.743 19.684 170.743 20.164C170.743 20.62 170.863 21.04 171.103 21.424C171.511 22.072 172.195 22.12 173.155 21.568C173.875 21.184 174.787 20.488 175.891 19.48C176.995 18.448 177.847 17.512 178.447 16.672C178.495 16.6 178.567 16.564 178.663 16.564C178.879 16.564 178.939 16.72 178.843 17.032C178.483 17.68 177.811 18.508 176.827 19.516C175.867 20.524 174.991 21.328 174.199 21.928C173.407 22.504 172.615 22.792 171.823 22.792C169.999 22.792 169.087 21.904 169.087 20.128C169.087 20.056 169.087 19.984 169.087 19.912C169.183 18.232 170.035 15.7 171.643 12.316C173.251 8.908 174.703 6.34 175.999 4.612L177.115 3.208C177.379 2.896 177.763 2.512 178.267 2.056C179.227 1.144 180.211 0.688 181.219 0.688C182.251 0.688 182.947 0.999999 183.307 1.624C183.427 1.84 183.487 2.152 183.487 2.56C183.487 2.968 183.307 3.544 182.947 4.288C180.475 8.584 176.575 12.952 171.247 17.392ZM178.316 22.36C178.004 22.72 177.932 23.008 178.1 23.224C178.292 23.44 178.496 23.548 178.712 23.548C178.952 23.548 179.192 23.512 179.432 23.44C180.464 23.128 181.46 22.516 182.42 21.604C183.404 20.668 183.896 19.72 183.896 18.76C183.896 18.232 183.308 17.656 182.132 17.032C181.58 16.744 181.268 16.576 181.196 16.528C180.548 16.096 180.14 15.664 179.972 15.232C179.636 15.808 179.096 16.636 178.352 17.716C178.184 17.908 178.028 17.956 177.884 17.86C177.74 17.74 177.728 17.584 177.848 17.392C178.832 16.048 179.48 14.92 179.792 14.008C179.96 12.688 180.92 11.5 182.672 10.444C184.424 9.388 186.02 8.86 187.46 8.86C188.372 8.86 189.008 9.028 189.368 9.364C189.752 9.676 189.944 9.988 189.944 10.3C189.944 10.612 189.848 10.972 189.656 11.38C189.488 11.788 189.128 12.172 188.576 12.532C188.432 12.628 188.312 12.604 188.216 12.46C188.168 12.316 188.264 12.124 188.504 11.884C188.768 11.62 188.936 11.272 189.008 10.84C189.08 10.408 188.888 10.144 188.432 10.048C188.36 10.048 188.288 10.048 188.216 10.048C187.28 10.048 186.104 10.396 184.688 11.092C183.296 11.788 182.204 12.688 181.412 13.792C181.1 14.2 180.944 14.62 180.944 15.052C180.944 15.46 181.232 15.832 181.808 16.168C182.048 16.312 182.456 16.54 183.032 16.852C183.608 17.164 184.016 17.392 184.256 17.536C184.496 17.68 184.784 17.908 185.12 18.22C185.456 18.532 185.636 18.82 185.66 19.084C185.78 19.804 185.444 20.596 184.652 21.46C183.524 22.708 181.844 23.584 179.612 24.088C179.108 24.208 178.592 24.268 178.064 24.268C177.56 24.268 177.212 24.076 177.02 23.692C176.948 23.596 176.912 23.44 176.912 23.224C176.912 23.032 177.104 22.708 177.488 22.252C177.848 21.892 178.424 21.544 179.216 21.208C179.288 21.184 179.348 21.196 179.396 21.244C179.444 21.292 179.456 21.352 179.432 21.424C179.408 21.496 179.276 21.58 179.036 21.676C178.82 21.772 178.58 22 178.316 22.36Z" />
  </g>
  <defs
     id="defs20">
    <filter
       color-interpolation-filters="sRGB"
       filterUnits="userSpaceOnUse"
       height="43.028"
       width="193.1"
       y="0.687988"
       x="0.843994"
       id="filter0_d">
      <feFlood
         id="feFlood5"
         result="BackgroundImageFix"
         flood-opacity="0" />
      <feColorMatrix
         id="feColorMatrix7"
         values="0 0 0 0 0 0 0 0 0 0 0 0 0 0 0 0 0 0 127 0"
         type="matrix"
         in="SourceAlpha" />
      <feOffset
         id="feOffset9"
         dy="4" />
      <feGaussianBlur
         id="feGaussianBlur11"
         stdDeviation="2" />
      <feColorMatrix
         id="feColorMatrix13"
         values="0 0 0 0 0 0 0 0 0 0 0 0 0 0 0 0 0 0 0.25 0"
         type="matrix" />
      <feBlend
         id="feBlend15"
         result="effect1_dropShadow"
         in2="BackgroundImageFix"
         mode="normal" />
      <feBlend
         id="feBlend17"
         result="shape"
         in2="effect1_dropShadow"
         in="SourceGraphic"
         mode="normal" />
    </filter>
  </defs>
</svg>
